<?xml version="1.0" standalone="no"?>
<!DOCTYPE svg PUBLIC "-//W3C//DTD SVG 20010904//EN"
 "http://www.w3.org/TR/2001/REC-SVG-20010904/DTD/svg10.dtd">
<svg version="1.0" xmlns="http://www.w3.org/2000/svg"
 width="80.000000pt" height="153.000000pt" viewBox="0 0 80.000000 153.000000"
 preserveAspectRatio="xMidYMid meet">

<g transform="translate(0.000000,153.000000) scale(0.100000,-0.100000)"
fill="#000000" stroke="none">
<path d="M152 527 c-23 -34 -42 -65 -42 -69 0 -3 26 -9 58 -13 53 -6 59 -10
95 -56 l39 -50 34 72 c19 39 34 72 34 74 0 1 -11 6 -25 9 -14 4 -25 11 -25 16
0 6 -11 10 -25 10 -26 0 -75 39 -75 60 0 27 -29 4 -68 -53z"/>
<path d="M600 565 c-8 -15 -29 -30 -52 -37 -21 -6 -43 -17 -49 -25 -6 -7 -18
-13 -25 -13 -21 0 -17 -18 19 -88 l32 -62 38 49 c35 48 39 50 97 57 33 4 60 9
60 11 0 9 -92 133 -99 133 -4 0 -14 -11 -21 -25z"/>
</g>
</svg>
