<?xml version="1.0" standalone="no"?>
<!DOCTYPE svg PUBLIC "-//W3C//DTD SVG 20010904//EN"
 "http://www.w3.org/TR/2001/REC-SVG-20010904/DTD/svg10.dtd">
<svg version="1.0" xmlns="http://www.w3.org/2000/svg"
 width="808.000000pt" height="662.000000pt" viewBox="0 0 808.000000 662.000000"
 preserveAspectRatio="xMidYMid meet">

<g transform="translate(0.000000,662.000000) scale(0.100000,-0.100000)"
fill="#000000" stroke="none">
<path d="M2105 6615 c-5 -2 -23 -6 -39 -10 -27 -6 -28 -8 -23 -46 3 -25 0 -50
-9 -67 -17 -33 -18 -72 -2 -72 8 0 9 -27 5 -97 -8 -124 -24 -201 -83 -388 -67
-216 -74 -244 -74 -309 0 -56 -1 -58 -22 -52 -131 38 -266 46 -383 21 -38 -8
-113 -36 -165 -61 -232 -115 -380 -356 -380 -619 0 -114 23 -206 76 -315 114
-230 355 -379 615 -380 68 0 154 11 201 26 13 4 20 -5 29 -36 29 -95 87 -115
334 -114 217 1 268 15 303 84 28 57 28 101 -3 225 -14 55 -28 133 -31 175 -7
82 7 256 33 420 23 142 23 438 0 531 -9 36 -14 75 -11 85 7 27 -14 115 -75
309 -57 187 -77 277 -87 396 -4 60 -3 88 5 93 16 10 14 52 -4 86 -10 20 -12
36 -6 53 12 31 2 45 -40 57 -32 9 -141 13 -164 5z m-290 -1136 c307 -102 477
-445 374 -754 -102 -306 -445 -477 -754 -374 -306 102 -477 445 -374 754 62
187 230 340 425 390 86 21 240 14 329 -16z"/>
<path d="M1545 5101 c-135 -63 -165 -233 -59 -333 104 -97 264 -64 325 67 76
163 -103 342 -266 266z"/>
<path d="M3676 6194 c-89 -21 -191 -80 -260 -150 -221 -220 -221 -578 0 -798
96 -96 249 -165 367 -166 36 0 37 -1 37 -35 0 -24 9 -45 29 -67 l29 -33 222
-5 222 -5 24 -28 c33 -39 31 -81 -5 -118 l-29 -29 -234 0 c-128 0 -239 -4
-247 -9 -8 -5 -11 -16 -8 -25 6 -14 45 -16 359 -16 319 0 355 -2 374 -18 51
-41 54 -105 7 -142 -25 -19 -40 -20 -372 -20 -190 0 -352 -4 -360 -9 -8 -5
-11 -16 -8 -25 6 -14 31 -16 186 -16 178 0 180 0 210 -26 24 -20 31 -34 31
-61 0 -89 -34 -103 -244 -103 -158 0 -166 -1 -176 -21 -16 -30 -4 -68 26 -79
16 -6 379 -10 947 -10 l922 0 62 -29 c74 -35 132 -91 170 -163 l28 -53 3 -362
3 -363 359 0 360 0 0 1018 c0 973 -1 1019 -19 1052 -10 19 -34 44 -52 55 -33
20 -54 20 -1181 23 -632 1 -1148 5 -1148 8 0 2 9 22 20 44 29 57 50 155 50
235 0 366 -345 636 -704 549z m236 -75 c186 -39 338 -191 377 -377 54 -258
-117 -517 -377 -571 -258 -54 -517 117 -571 377 -70 336 235 641 571 571z"/>
<path d="M3745 5796 c-89 -40 -124 -169 -67 -245 38 -51 69 -66 137 -66 105 0
160 55 160 160 0 68 -15 99 -68 139 -33 25 -121 32 -162 12z"/>
<path d="M2662 4878 c-7 -7 -12 -19 -12 -28 0 -40 -6 -40 831 -40 721 0 809 2
823 16 19 18 19 20 6 45 -10 19 -30 19 -823 19 -619 0 -816 -3 -825 -12z"/>
<path d="M3432 4651 c-8 -5 -12 -21 -10 -37 l3 -29 555 0 555 0 3 23 c8 53 22
52 -557 52 -295 0 -542 -4 -549 -9z"/>
<path d="M6910 3880 l0 -690 34 0 33 0 6 67 c13 136 106 269 234 334 65 33 71
34 182 34 105 0 121 -3 174 -27 31 -15 82 -50 112 -79 83 -79 122 -156 134
-269 l6 -55 82 -3 c61 -2 91 1 114 13 53 28 59 60 59 298 0 311 -1 314 -210
459 l-104 73 -103 224 c-56 123 -115 237 -130 253 -48 50 -99 58 -375 58
l-248 0 0 -690z m545 582 c24 -15 48 -58 123 -219 50 -109 92 -202 92 -206 0
-4 -90 -7 -200 -7 -213 0 -247 6 -270 49 -6 12 -10 99 -10 210 l0 191 118 0
c96 0 122 -3 147 -18z"/>
<path d="M3086 4414 c-9 -8 -16 -21 -16 -28 0 -35 14 -36 572 -36 l548 0 6 27
c14 53 18 53 -562 53 -471 0 -534 -2 -548 -16z"/>
<path d="M1250 3949 c-44 -18 -90 -59 -113 -102 -22 -41 -22 -49 -27 -522 -4
-430 -6 -473 -18 -410 -7 39 -17 117 -22 175 -7 86 -6 108 6 121 19 21 18 82
-2 120 -10 21 -13 43 -9 73 14 89 -28 111 -210 111 -100 0 -127 -4 -160 -20
l-40 -20 0 -60 c0 -33 -3 -64 -6 -70 -4 -5 -12 -27 -18 -47 -11 -32 -10 -43 3
-69 39 -79 4 -317 -91 -624 -87 -278 -115 -391 -109 -440 2 -21 -2 -63 -9 -92
-8 -30 -17 -82 -20 -116 -3 -34 -8 -76 -11 -94 l-5 -31 -62 1 c-172 5 -303
-109 -315 -272 -9 -131 50 -236 163 -292 54 -27 77 -32 133 -32 37 1 79 6 94
12 33 13 33 13 47 -134 28 -289 25 -362 -31 -580 -46 -183 -30 -303 48 -364
60 -48 120 -56 394 -56 289 0 341 9 403 68 62 58 81 175 51 310 l-6 27 449 0
449 0 16 98 c8 53 19 105 23 114 7 17 -22 18 -491 20 l-499 3 -3 32 -3 33 518
0 518 0 25 48 c14 26 61 83 105 128 89 89 195 150 314 180 93 23 283 16 371
-15 144 -50 289 -164 361 -284 l34 -57 1132 0 1133 0 0 1473 c0 1007 -3 1484
-11 1510 -13 49 -73 115 -124 138 -38 18 -131 19 -2195 18 -1392 0 -2164 -4
-2180 -10z m-297 -488 c63 -10 72 -20 57 -63 -11 -29 -10 -38 9 -73 25 -48 26
-63 4 -87 -15 -17 -16 -30 -5 -151 13 -136 36 -259 72 -382 19 -68 20 -93 20
-977 l0 -908 45 0 c45 0 45 0 45 -35 l0 -35 -62 0 c-79 0 -121 -23 -138 -76
-9 -27 -10 -46 -1 -74 19 -64 40 -75 152 -78 l99 -4 12 -41 c20 -70 16 -176
-8 -217 -46 -79 -129 -100 -397 -100 -327 1 -401 33 -414 179 -4 46 2 90 33
212 37 149 39 160 38 319 -1 91 -8 221 -17 289 l-16 124 47 52 c100 109 109
258 23 377 -17 23 -47 54 -67 68 l-37 24 6 101 c4 55 14 125 23 155 9 30 16
66 15 80 -5 104 0 124 94 427 77 244 101 355 116 528 9 111 9 129 -5 144 -21
23 -20 44 4 91 16 32 18 44 9 70 -8 23 -8 35 0 43 22 22 156 32 244 18z m3597
-521 c43 -11 240 -127 240 -140 0 -12 -89 -123 -102 -128 -4 -2 -61 32 -126
75 -124 84 -211 118 -282 111 -31 -3 -35 -7 -38 -33 -14 -165 -99 -333 -198
-391 -57 -34 -91 -29 -122 16 -20 29 -23 43 -18 83 8 74 70 182 152 265 58 58
68 72 50 72 -40 0 -131 -63 -212 -147 -224 -229 -415 -600 -417 -808 -1 -124
78 -178 182 -126 124 64 268 328 232 425 -29 74 -127 -27 -147 -151 -4 -29
-13 -44 -29 -51 -13 -6 -53 -36 -90 -68 l-67 -56 7 53 c11 85 24 129 62 202
99 188 285 235 318 80 23 -111 -84 -340 -212 -453 -104 -92 -235 -125 -320
-82 -161 83 -163 324 -4 639 100 201 243 383 385 490 142 107 307 158 382 118
31 -16 37 -16 101 -1 115 27 186 28 273 6z m-2322 -15 c36 -30 44 -65 30 -123
-21 -87 -118 -149 -134 -87 -3 14 -4 36 0 48 7 29 53 77 73 77 27 0 9 35 -20
38 -41 5 -105 -37 -192 -126 -143 -145 -271 -351 -336 -542 -29 -82 -33 -109
-34 -195 0 -114 16 -158 79 -212 87 -77 198 -72 506 20 245 74 359 93 498 83
166 -12 328 -80 431 -183 29 -30 51 -56 48 -59 -2 -3 -50 4 -105 16 -119 24
-236 26 -316 5 l-59 -15 -34 35 c-67 69 -102 80 -248 80 -127 0 -135 -2 -325
-55 -192 -54 -197 -55 -330 -55 -131 0 -136 1 -189 30 -69 38 -116 100 -143
188 -62 204 42 503 269 772 181 215 436 340 531 260z m2937 1 c21 -31 11 -91
-18 -111 -32 -22 -36 -19 -34 26 1 27 -3 44 -11 46 -22 8 -155 -138 -231 -252
-77 -117 -239 -430 -228 -441 11 -11 145 125 228 232 72 93 94 114 120 114 41
0 -83 -163 -258 -337 l-153 -152 -20 -73 c-11 -40 -20 -92 -20 -115 0 -36 3
-43 19 -43 27 0 76 61 172 213 147 235 257 320 354 275 19 -9 28 -9 37 0 15
15 138 16 138 2 0 -6 -49 -109 -110 -230 -60 -121 -110 -227 -110 -235 0 -44
59 8 125 110 19 30 39 55 45 55 59 0 -63 -201 -172 -282 -54 -41 -82 -52 -119
-46 -20 2 -31 15 -56 66 0 2 -25 -13 -53 -32 -62 -43 -109 -47 -140 -14 -11
12 -20 34 -20 49 0 42 -13 42 -56 -2 -48 -50 -83 -69 -128 -69 -79 0 -106 91
-71 250 7 36 10 69 6 73 -5 5 -21 7 -37 5 -23 -2 -36 -18 -80 -90 -73 -123
-135 -192 -199 -224 -85 -41 -137 -19 -156 65 -32 143 136 449 290 528 78 41
104 41 142 4 34 -34 38 -81 15 -169 -13 -46 -13 -54 0 -59 18 -7 64 5 64 17 0
20 95 231 147 324 95 173 183 297 278 391 139 139 260 192 300 131z m217 -38
c-49 -109 -161 -221 -273 -273 -87 -39 -219 -59 -219 -32 0 7 24 44 53 82 51
67 56 70 105 77 99 15 198 65 302 157 25 21 47 38 48 36 2 -2 -5 -23 -16 -47z
m-3138 -283 c31 -34 40 -84 26 -151 -7 -31 -9 -58 -6 -61 3 -4 24 -1 46 6 31
9 63 35 127 101 92 96 147 130 207 130 49 0 70 -12 86 -50 16 -40 7 -93 -25
-141 -40 -61 -105 -63 -105 -3 0 26 55 94 76 94 8 0 14 5 14 10 0 15 -43 12
-68 -6 -49 -34 -138 -175 -177 -279 -53 -141 -16 -204 81 -139 71 47 115 97
214 245 102 150 175 230 235 255 41 17 89 18 117 3 14 -8 23 -8 31 0 13 13
147 15 147 2 0 -5 -49 -110 -110 -232 -60 -123 -110 -229 -110 -236 0 -40 80
34 121 112 23 44 49 63 69 50 29 -18 -122 -234 -203 -288 -90 -61 -137 -62
-158 -3 l-12 34 -49 -33 c-26 -18 -62 -36 -78 -40 -58 -13 -106 42 -98 113 2
17 2 32 0 32 -2 0 -29 -21 -60 -46 -151 -123 -267 -133 -314 -26 -24 54 -19
111 17 208 l24 64 -32 0 c-18 0 -37 -4 -43 -8 -6 -4 -33 -45 -60 -92 -65 -112
-173 -224 -231 -239 -137 -36 -187 101 -107 293 33 76 100 182 156 242 90 98
202 133 252 79z m1246 13 c0 -7 -15 -40 -33 -73 l-32 -60 -72 -3 c-40 -2 -73
1 -73 5 0 15 61 127 73 135 21 13 137 10 137 -4z m-3105 -848 c3 -5 8 -78 10
-162 3 -84 9 -173 14 -198 17 -75 14 -95 -14 -108 -35 -16 -138 -15 -179 2
-116 49 -181 186 -144 308 15 51 82 126 133 149 43 20 169 26 180 9z m4829
-16 c21 -21 20 -37 -4 -59 -40 -36 -96 7 -70 55 13 24 52 26 74 4z m-4686
-104 c38 -64 38 -166 0 -231 -27 -46 -58 -79 -58 -63 0 5 -6 47 -13 94 -8 50
-12 127 -9 188 l4 103 25 -23 c14 -13 37 -43 51 -68z"/>
<path d="M4092 2760 c-98 -97 -166 -262 -121 -291 20 -12 22 -12 59 14 69 46
144 193 152 297 5 55 -21 49 -90 -20z"/>
<path d="M4249 2208 c-13 -22 -18 -43 -14 -63 5 -30 37 -65 60 -65 28 0 57
119 35 145 -22 26 -58 18 -81 -17z"/>
<path d="M4976 2179 c-79 -85 -179 -299 -162 -345 15 -40 64 1 128 107 52 89
130 268 124 285 -10 26 -34 14 -90 -47z"/>
<path d="M4156 2068 c-29 -44 -67 -141 -73 -186 -5 -37 -3 -47 12 -58 26 -19
30 -18 69 17 38 33 106 137 106 161 0 8 -18 27 -40 44 -22 16 -40 32 -40 37 0
15 -20 6 -34 -15z"/>
<path d="M2158 2544 c-27 -14 -45 -53 -39 -84 4 -23 42 -60 62 -60 21 0 39 47
39 101 0 48 -23 64 -62 43z"/>
<path d="M2987 2491 c-62 -68 -125 -176 -156 -268 -37 -111 6 -127 76 -28 51
72 162 290 165 325 5 44 -26 34 -85 -29z"/>
<path d="M2022 2341 c-61 -112 -74 -221 -27 -221 35 0 166 159 164 200 0 14
-81 80 -98 80 -4 0 -22 -26 -39 -59z"/>
<path d="M5145 1740 c-13 -41 43 -70 64 -33 13 25 -5 53 -34 53 -15 0 -26 -7
-30 -20z m36 -10 c6 0 7 5 4 10 -3 6 -2 10 3 10 6 0 9 -11 8 -24 -1 -17 -4
-21 -13 -15 -7 7 -13 5 -16 -3 -3 -7 -5 1 -5 17 0 17 2 24 5 18 2 -7 9 -13 14
-13z"/>
<path d="M7322 3525 c-29 -8 -62 -20 -74 -26 -42 -23 -111 -95 -136 -144 -23
-43 -27 -62 -27 -140 0 -74 5 -98 24 -137 56 -115 164 -182 291 -183 66 0 84
4 143 33 79 39 136 103 162 183 24 71 17 178 -14 243 -67 136 -227 210 -369
171z m148 -167 c61 -31 90 -77 90 -143 0 -125 -130 -204 -235 -143 -62 37 -88
82 -83 149 5 68 35 114 92 140 54 24 82 24 136 -3z"/>
<path d="M7362 3264 c-34 -23 -27 -83 11 -104 24 -13 30 -13 55 0 37 21 44 81
10 104 -12 9 -29 16 -38 16 -9 0 -26 -7 -38 -16z"/>
<path d="M6080 1585 l0 -1105 59 0 59 0 4 93 c8 162 71 299 193 422 81 80 151
125 257 163 95 34 279 43 379 18 180 -45 353 -180 436 -341 48 -94 62 -139 77
-260 l11 -90 120 -3 c149 -4 177 1 220 39 65 57 66 71 63 489 l-3 375 -28 60
c-40 85 -78 120 -284 262 l-182 126 -157 346 c-86 190 -170 364 -185 387 -15
22 -45 52 -66 67 -81 56 -89 57 -549 57 l-424 0 0 -1105z m887 936 c36 -26 53
-58 191 -355 84 -179 152 -328 152 -331 0 -3 -145 -5 -323 -5 -315 0 -324 1
-367 23 -86 44 -85 37 -88 388 l-3 309 199 0 199 0 40 -29z"/>
<path d="M2780 1025 c-240 -54 -410 -265 -410 -507 0 -323 306 -572 622 -507
72 15 183 70 239 118 187 163 229 462 93 669 -119 182 -339 273 -544 227z
m210 -266 c55 -25 105 -71 133 -124 31 -57 30 -173 0 -231 -105 -197 -382
-191 -474 11 -21 45 -25 147 -8 192 52 139 218 212 349 152z"/>
<path d="M2819 591 c-44 -44 -43 -102 2 -143 58 -54 151 -27 165 49 19 100
-96 165 -167 94z"/>
<path d="M6763 1025 c-201 -44 -355 -200 -398 -402 -18 -86 -18 -121 0 -208
43 -202 203 -363 403 -404 270 -56 543 120 607 391 66 282 -114 563 -400 623
-85 18 -130 18 -212 0z m212 -269 c100 -47 155 -130 155 -237 -1 -151 -109
-259 -259 -259 -107 0 -190 55 -237 155 -99 211 130 440 341 341z"/>
<path d="M6820 607 c-56 -28 -67 -111 -21 -158 65 -64 171 -20 171 71 0 78
-78 124 -150 87z"/>
<path d="M3535 723 c13 -56 47 -113 85 -143 79 -63 25 -60 1131 -60 l1009 0 0
115 0 115 -1116 0 -1116 0 7 -27z"/>
<path d="M1422 243 c-10 -20 -5 -44 12 -55 14 -10 708 -10 722 0 17 11 22 35
12 55 -8 16 -36 17 -373 17 -337 0 -365 -1 -373 -17z"/>
<path d="M4072 248 c-18 -18 -14 -46 7 -58 27 -14 1825 -14 1852 0 21 12 25
40 7 58 -17 17 -1849 17 -1866 0z"/>
<path d="M1682 68 c-16 -16 -15 -43 2 -57 9 -8 115 -11 371 -9 328 3 359 4
369 21 8 12 8 22 0 35 -10 16 -41 17 -370 20 -272 2 -363 -1 -372 -10z"/>
<path d="M5608 69 c-21 -12 -23 -40 -6 -57 9 -9 104 -12 364 -12 194 0 359 3
368 6 19 7 21 45 4 62 -16 16 -704 17 -730 1z"/>
</g>
</svg>
