<?xml version="1.0" standalone="no"?>
<!DOCTYPE svg PUBLIC "-//W3C//DTD SVG 20010904//EN"
 "http://www.w3.org/TR/2001/REC-SVG-20010904/DTD/svg10.dtd">
<svg version="1.0" xmlns="http://www.w3.org/2000/svg"
 width="80.000000pt" height="112.000000pt" viewBox="0 0 80.000000 112.000000"
 preserveAspectRatio="xMidYMid meet">

<g transform="translate(0.000000,112.000000) scale(0.100000,-0.100000)"
fill="#000000" stroke="none">
<path d="M158 342 l-38 -57 55 -10 c48 -9 58 -15 87 -54 l32 -44 27 59 c15 32
28 61 28 64 1 5 -17 15 -91 50 -15 7 -30 21 -34 32 -9 31 -27 20 -66 -40z"/>
<path d="M563 380 c-7 -10 -38 -31 -68 -46 -30 -15 -55 -31 -55 -35 0 -5 12
-33 27 -63 l27 -55 34 44 c30 39 39 44 87 50 l54 7 -40 59 c-22 32 -43 59 -47
59 -4 0 -13 -9 -19 -20z"/>
</g>
</svg>
