<?xml version="1.0" standalone="no"?>
<!DOCTYPE svg PUBLIC "-//W3C//DTD SVG 20010904//EN"
 "http://www.w3.org/TR/2001/REC-SVG-20010904/DTD/svg10.dtd">
<svg version="1.0" xmlns="http://www.w3.org/2000/svg"
 width="300.000000pt" height="99.000000pt" viewBox="0 0 300.000000 99.000000"
 preserveAspectRatio="xMidYMid meet">

<g transform="translate(0.000000,99.000000) scale(0.100000,-0.100000)"
fill="#000000" stroke="none">
<path d="M85 975 c-22 -8 -41 -15 -42 -15 -1 0 -10 -14 -18 -31 -34 -64 12
-126 134 -181 123 -55 154 -94 110 -134 -17 -15 -36 -19 -103 -19 -44 0 -97 4
-117 8 -32 8 -37 6 -42 -13 -7 -28 25 -41 128 -47 132 -9 199 23 211 99 9 52
-29 89 -157 154 -87 43 -110 59 -115 80 -11 45 15 59 109 59 45 0 96 -3 113
-7 28 -6 32 -4 36 17 6 29 -6 33 -123 40 -62 4 -95 1 -124 -10z"/>
<path d="M722 981 c-53 -14 -107 -58 -137 -112 -24 -44 -27 -59 -23 -118 4
-81 35 -135 99 -178 48 -32 136 -42 194 -23 130 43 191 210 119 327 -52 84
-158 128 -252 104z m101 -52 c46 -12 100 -58 117 -99 18 -44 8 -130 -20 -170
-27 -38 -90 -69 -139 -70 -55 0 -118 36 -146 84 -57 97 -14 214 92 251 47 17
49 17 96 4z"/>
<path d="M755 818 c-27 -15 -35 -28 -35 -60 0 -50 70 -77 103 -40 20 22 22 75
5 90 -23 17 -52 22 -73 10z"/>
<path d="M1922 978 c-7 -10 -140 -324 -179 -425 -4 -9 5 -13 25 -13 28 0 32 5
54 60 l23 60 97 0 96 0 18 -47 c10 -27 22 -54 27 -60 10 -14 57 -18 57 -6 0
12 -161 397 -176 421 -16 25 -27 28 -42 10z m57 -170 c18 -46 35 -89 38 -95 4
-10 -14 -13 -71 -13 -43 0 -76 4 -76 10 0 17 64 180 71 180 3 0 21 -37 38 -82z"/>
<path d="M1232 768 l3 -213 148 -3 148 -3 -3 23 c-3 22 -7 23 -125 26 l-123 3
0 189 0 190 -25 0 -25 0 2 -212z"/>
<path d="M2352 968 c-9 -9 -12 -70 -12 -215 l0 -203 30 0 30 0 0 85 0 85 73 0
72 0 57 -90 c52 -82 60 -90 89 -90 38 0 37 1 -30 109 l-50 81 29 15 c59 30 80
127 39 179 -37 47 -68 56 -197 56 -78 0 -122 -4 -130 -12z m263 -63 c48 -47
23 -115 -47 -129 -17 -3 -61 -6 -99 -6 l-69 0 0 80 0 80 95 0 c88 0 98 -2 120
-25z"/>
<path d="M2767 973 c-4 -3 -7 -31 -7 -60 l0 -54 48 3 47 3 0 45 c1 25 -3 51
-8 58 -10 13 -69 17 -80 5z m62 -12 c19 -12 4 -31 -25 -31 -17 0 -24 5 -24 20
0 21 24 27 49 11z m16 -71 c0 -10 -12 -16 -32 -18 -28 -3 -33 0 -33 18 0 18 5
21 33 18 20 -2 32 -8 32 -18z"/>
<path d="M2890 921 c0 -34 4 -61 10 -61 6 0 10 11 10 25 0 18 5 25 18 25 10 0
25 -11 32 -25 7 -14 17 -25 22 -25 10 0 10 11 -2 30 -5 9 -5 19 1 27 6 6 9 22
7 35 -3 20 -10 23 -50 26 l-48 3 0 -60z m78 37 c16 -16 -3 -38 -34 -38 -19 0
-24 5 -24 25 0 19 5 25 23 25 13 0 28 -5 35 -12z"/>
<path d="M1643 375 c-58 -29 -126 -98 -168 -169 -39 -67 -42 -148 -6 -177 29
-24 100 -25 185 -3 81 21 139 21 171 0 17 -11 36 -15 58 -11 17 4 52 2 77 -4
l45 -10 -34 29 c-64 55 -137 60 -286 19 -125 -34 -185 -18 -185 49 0 76 154
282 211 282 l22 0 -23 -25 c-25 -27 -23 -40 4 -29 18 7 32 47 21 63 -10 17
-37 13 -92 -14z"/>
<path d="M2270 374 c-104 -48 -220 -206 -220 -299 0 -49 13 -65 55 -65 65 0
155 90 155 157 0 28 -3 33 -24 33 -14 0 -36 -10 -50 -22 -26 -23 -63 -98 -49
-98 16 1 51 37 67 68 17 33 46 44 46 17 0 -40 -80 -135 -113 -135 -20 0 -37
22 -37 45 0 64 138 253 213 291 36 19 46 12 13 -9 -31 -21 -70 -83 -62 -102
15 -41 97 22 111 87 9 37 46 38 99 2 29 -20 43 -24 54 -17 26 16 24 29 -5 49
-45 30 -187 29 -253 -2z m90 -33 c0 -18 -33 -68 -55 -83 -37 -27 -33 22 6 67
35 39 49 44 49 16z"/>
<path d="M2609 372 c-45 -29 -98 -93 -163 -194 -19 -32 -38 -58 -41 -58 -3 0
-5 17 -3 37 3 33 0 38 -19 41 -27 4 -95 -55 -117 -102 -45 -95 4 -118 77 -36
25 27 50 50 56 50 13 0 13 2 2 -38 -17 -58 11 -82 51 -45 17 15 19 15 33 -3
12 -17 16 -17 36 -5 17 10 24 10 27 2 7 -22 43 -10 82 29 22 22 40 45 40 52 0
7 -13 -3 -30 -22 -39 -47 -38 -21 3 43 18 29 37 58 41 65 5 9 -6 12 -43 12
-55 0 -48 5 -154 -115 -20 -22 -38 -37 -41 -34 -16 15 22 73 80 124 35 32 69
67 75 79 6 11 -14 -3 -45 -33 -30 -30 -58 -52 -61 -50 -15 16 137 209 164 209
7 0 9 -4 6 -10 -3 -5 -1 -10 4 -10 6 0 11 9 11 20 0 27 -18 25 -71 -8z m-219
-211 c0 -11 -5 -23 -11 -27 -14 -8 -29 14 -22 33 8 20 33 16 33 -6z m240 13
c0 -3 -11 -25 -25 -48 -45 -76 -95 -105 -60 -34 26 51 85 108 85 82z m-272
-57 c8 -10 5 -20 -14 -40 -40 -44 -58 -29 -32 28 12 28 30 32 46 12z"/>
<path d="M2731 376 c-7 -8 -34 -23 -59 -32 -26 -9 -56 -25 -67 -36 -19 -18
-19 -18 8 -18 16 0 40 6 55 14 32 17 88 73 80 81 -3 3 -11 -1 -17 -9z"/>
<path d="M1662 280 c-40 -24 -92 -104 -92 -141 0 -57 67 -38 117 33 26 39 62
54 48 21 -17 -39 -17 -80 -1 -86 19 -8 64 8 88 30 17 15 18 14 18 -5 0 -28 14
-35 45 -20 21 9 28 9 34 -1 12 -18 62 9 95 51 31 41 26 50 -8 12 -39 -47 -38
-23 2 41 21 33 41 66 46 72 10 17 -70 15 -105 -3 -14 -7 -45 -38 -69 -69 -50
-65 -97 -96 -106 -70 -4 9 -2 27 4 39 14 31 71 96 85 96 5 0 2 -9 -8 -20 -21
-23 -13 -39 10 -20 20 17 20 60 0 60 -23 0 -67 -24 -89 -49 -27 -30 -44 -26
-48 11 -4 40 -22 45 -66 18z m58 -19 c0 -24 -18 -37 -32 -23 -8 8 -7 16 2 27
17 21 30 19 30 -4z m280 14 c0 -11 -67 -110 -83 -124 -15 -12 -17 -11 -17 6 0
21 20 54 58 96 24 25 42 35 42 22z m-326 -51 c24 -9 20 -27 -13 -58 -36 -34
-47 -20 -24 28 9 20 18 36 19 36 1 0 9 -3 18 -6z"/>
<path d="M2075 280 c-18 -20 -17 -20 8 -20 16 0 30 8 37 20 9 17 8 20 -8 20
-10 0 -27 -9 -37 -20z"/>
</g>
</svg>
